<svg xmlns="http://www.w3.org/2000/svg" viewBox="0 0 100.71 112.82"><defs><style>.cls-1{fill:#86c3d0;}.cls-2{fill:#fff;}.cls-3{font-size:12px;fill:#1d1d1b;font-family:MyriadPro-Regular, Myriad Pro;}.cls-4{letter-spacing:0em;}.cls-5{letter-spacing:0.03em;}.cls-6{letter-spacing:-0.01em;}.cls-7{letter-spacing:-0.01em;}.cls-8{letter-spacing:-0.01em;}.cls-9{letter-spacing:0em;}.cls-10{letter-spacing:-0.01em;}.cls-11{letter-spacing:0.01em;}</style></defs><g id="API"><path class="cls-1" d="M50.35,13.37a43,43,0,1,0,43.05,43A43,43,0,0,0,50.35,13.37Z"/><path class="cls-2" d="M62.9,48.24a4.41,4.41,0,1,1,4.4-4.41A4.41,4.41,0,0,1,62.9,48.24Zm0-7a2.57,2.57,0,1,0,2.56,2.56A2.57,2.57,0,0,0,62.9,41.27Z"/><path class="cls-2" d="M37.81,73.32a4.41,4.41,0,1,1,4.41-4.41A4.41,4.41,0,0,1,37.81,73.32Zm0-7a2.57,2.57,0,1,0,2.57,2.56A2.56,2.56,0,0,0,37.81,66.35Z"/><path class="cls-2" d="M59.41,44.75h-13a.92.92,0,0,1,0-1.84h13a.92.92,0,0,1,0,1.84Z"/><path class="cls-2" d="M37.81,66.35a.92.92,0,0,1-.92-.92V53.33a.92.92,0,0,1,1.84,0v12.1A.92.92,0,0,1,37.81,66.35Z"/><path class="cls-2" d="M54.35,69.84H41.3a.93.93,0,0,1,0-1.85H54.35a.93.93,0,0,1,0,1.85Z"/><path class="cls-2" d="M62.9,61.13a.93.93,0,0,1-.93-.92V47.32a.93.93,0,0,1,1.85,0V60.21A.92.92,0,0,1,62.9,61.13Z"/><path class="cls-2" d="M72.7,69.91H53.09a1.62,1.62,0,0,1-1.61-1.62V60.9a1.61,1.61,0,0,1,1.61-1.61H72.7a1.61,1.61,0,0,1,1.61,1.61v7.39A1.62,1.62,0,0,1,72.7,69.91ZM53.32,68.06H72.47V61.13H53.32Z"/><path class="cls-2" d="M70,64.6a1.15,1.15,0,1,1-1.15-1.15A1.15,1.15,0,0,1,70,64.6Z"/><path class="cls-2" d="M64.56,65.52h-8.4a.92.92,0,0,1,0-1.84h8.4a.92.92,0,1,1,0,1.84Z"/><path class="cls-2" d="M72.7,78.68H53.09a1.61,1.61,0,0,1-1.61-1.61V69.68a1.62,1.62,0,0,1,1.61-1.62H72.7a1.62,1.62,0,0,1,1.61,1.62v7.39A1.61,1.61,0,0,1,72.7,78.68ZM53.32,76.84H72.47V69.91H53.32Z"/><path class="cls-2" d="M70,73.37a1.15,1.15,0,1,1-2.29,0,1.15,1.15,0,0,1,2.29,0Z"/><path class="cls-2" d="M64.56,74.29h-8.4a.92.92,0,1,1,0-1.84h8.4a.92.92,0,0,1,0,1.84Z"/><path class="cls-2" d="M47.62,44.75H28a1.61,1.61,0,0,1-1.61-1.61V35.75A1.61,1.61,0,0,1,28,34.14H47.62a1.61,1.61,0,0,1,1.61,1.61v7.39A1.61,1.61,0,0,1,47.62,44.75ZM28.24,42.91H47.39V36H28.24Z"/><path class="cls-2" d="M44.92,39.45a1.14,1.14,0,1,1-1.14-1.15A1.14,1.14,0,0,1,44.92,39.45Z"/><path class="cls-2" d="M39.48,40.37h-8.4a.93.93,0,0,1,0-1.85h8.4a.93.93,0,0,1,0,1.85Z"/><path class="cls-2" d="M47.62,53.53H28a1.62,1.62,0,0,1-1.61-1.62V44.52A1.61,1.61,0,0,1,28,42.91H47.62a1.61,1.61,0,0,1,1.61,1.61v7.39A1.62,1.62,0,0,1,47.62,53.53ZM28.24,51.68H47.39V44.75H28.24Z"/><path class="cls-2" d="M44.92,48.22a1.14,1.14,0,1,1-1.14-1.15A1.14,1.14,0,0,1,44.92,48.22Z"/><path class="cls-2" d="M39.48,49.14h-8.4a.92.92,0,1,1,0-1.84h8.4a.92.92,0,0,1,0,1.84Z"/></g><g id="HOSTING"><text class="cls-3" transform="translate(92.45 -4.98)"><tspan class="cls-4">R</tspan><tspan x="6.5" y="0">ol</tspan><tspan class="cls-5" x="15.92" y="0">e</tspan><tspan x="22.27" y="0">-Based </tspan><tspan class="cls-6" x="58.32" y="0">A</tspan><tspan class="cls-7" x="65.52" y="0">cc</tspan><tspan x="76.13" y="0">ess </tspan><tspan class="cls-8" x="94.19" y="0">C</tspan><tspan x="101.02" y="0">o</tspan><tspan class="cls-9" x="107.6" y="0">n</tspan><tspan x="114.21" y="0">t</tspan><tspan class="cls-10" x="118.19" y="0">r</tspan><tspan x="121.99" y="0">ol</tspan></text><text class="cls-3" transform="translate(17.93 -4.98)"><tspan class="cls-4">R</tspan><tspan x="6.5" y="0">est </tspan><tspan class="cls-7" x="23.78" y="0">t</tspan><tspan x="27.68" y="0">o </tspan><tspan class="cls-11" x="36.82" y="0">S</tspan><tspan x="42.8" y="0">oap</tspan></text></g></svg>